<?xml version="1.0" encoding="utf-8"?>
<!-- Uploaded to: SVG Repo, www.svgrepo.com, Generator: SVG Repo Mixer Tools -->
<svg width="800px" height="800px" viewBox="0 0 48 48" xmlns="http://www.w3.org/2000/svg">
    <title>70 Basic icons by Xicons.co</title>
    <path
        d="M35.44,47H12.56a4,4,0,0,1-4-3.53L5.26,15.23a2,2,0,0,1,2-2.23h33.5a2,2,0,0,1,2,2.23L39.42,43.47A4,4,0,0,1,35.44,47Z"
        fill="#e85566" />
    <path
        d="M32,19a2,2,0,0,1-2-1.92V10.3a6.17,6.17,0,0,0-6-6.45,6.17,6.17,0,0,0-6,6.45v6.78a2,2,0,0,1-4,0V10.3a10,10,0,1,1,20,0v6.78A2,2,0,0,1,32,19Z"
        fill="#f5bac1" />
</svg>